<svg width="137" height="49" viewBox="0 0 137 49" fill="none" xmlns="http://www.w3.org/2000/svg">
<path d="M136.006 25.3634C136.006 28.4715 134.148 31.4554 130.733 34.1905C127.32 36.9245 122.373 39.3933 116.245 41.4694C103.992 45.6211 87.0551 48.1916 68.3399 48.1916C49.6247 48.1916 32.6876 45.6211 20.4346 41.4694C14.3073 39.3933 9.35949 36.9245 5.94657 34.1905C2.53223 31.4554 0.673438 28.4715 0.673438 25.3634C0.673438 22.2554 2.53223 19.2715 5.94657 16.5364C9.35949 13.8023 14.3073 11.3336 20.4346 9.25747C32.6876 5.10577 49.6247 2.53525 68.3399 2.53525C87.0551 2.53525 103.992 5.10577 116.245 9.25747C122.373 11.3336 127.32 13.8023 130.733 16.5364C134.148 19.2715 136.006 22.2554 136.006 25.3634Z" stroke="#988E84" stroke-width="0.3"/>
<path d="M122.879 3.64025L121.667 9.9254L126.85 13.9282L120.258 12.8285L116.008 17.7974L117.22 11.5123L112.037 7.50949L118.629 8.60918L122.879 3.64025Z" fill="#988E84"/>
</svg>
