<svg width="17" height="16" viewBox="0 0 17 16" fill="none" xmlns="http://www.w3.org/2000/svg">
<g clip-path="url(#clip0)">
<path d="M8.78139 9.75359C8.78139 8.55081 8.20929 7.66174 7.02734 7.3285C7.88972 6.91781 8.33946 6.29559 8.33946 5.32777C8.33946 3.41946 6.91279 2.9541 5.26677 2.9541H0.734863V12.5353H5.39369C7.14059 12.5353 8.78139 11.7003 8.78139 9.75359ZM2.84754 4.5897H4.83005C5.5922 4.5897 6.2782 4.80318 6.2782 5.68444C6.2782 6.49801 5.7445 6.82539 4.98951 6.82539H2.84754V4.5897ZM2.84689 10.9082V8.26964H5.14962C6.07969 8.26964 6.66807 8.65625 6.66807 9.63774C6.66807 10.6056 5.96579 10.9082 5.10601 10.9082H2.84689Z" fill="#988E84"/>
<path d="M12.9683 12.717C14.6306 12.717 15.7071 11.9704 16.2252 10.3836H14.5382C14.3566 10.9759 13.6081 11.289 13.0276 11.289C11.9074 11.289 11.3191 10.6349 11.3191 9.52321H16.3391C16.4979 7.29859 15.2587 5.40265 12.9677 5.40265C10.8466 5.40265 9.40686 6.99204 9.40686 9.07412C9.40686 11.235 10.7711 12.717 12.9683 12.717ZM12.9085 6.84234C13.8685 6.84234 14.3514 7.40468 14.4321 8.32434H11.3217C11.3848 7.41249 11.9921 6.84234 12.9085 6.84234Z" fill="#988E84"/>
<path d="M10.9318 3.45721H14.8291V4.40096H10.9318V3.45721Z" fill="#988E84"/>
</g>
<defs>
<clipPath id="clip0">
<rect width="15.6205" height="15.6205" fill="white" transform="translate(0.734863 0.0252686)"/>
</clipPath>
</defs>
</svg>
