<svg width="13" height="13" viewBox="0 0 13 13" fill="none" xmlns="http://www.w3.org/2000/svg">
<g clip-path="url(#clip0)">
<path d="M9.56474 0.611572H3.98952C2.17502 0.611572 0.698853 2.08774 0.698853 3.90224V9.47755C0.698853 11.292 2.17502 12.7681 3.98952 12.7681H9.56483C11.3792 12.7681 12.8554 11.292 12.8554 9.47755V3.90224C12.8554 2.08774 11.3792 0.611572 9.56474 0.611572V0.611572ZM6.77713 10.0138C4.94426 10.0138 3.45316 8.52272 3.45316 6.68985C3.45316 4.85698 4.94426 3.36588 6.77713 3.36588C8.61 3.36588 10.1011 4.85698 10.1011 6.68985C10.1011 8.52272 8.61 10.0138 6.77713 10.0138ZM10.1806 4.14978C9.63894 4.14978 9.19839 3.70923 9.19839 3.16759C9.19839 2.62595 9.63894 2.18531 10.1806 2.18531C10.7222 2.18531 11.1629 2.62595 11.1629 3.16759C11.1629 3.70923 10.7222 4.14978 10.1806 4.14978Z" fill="#988E84"/>
<path d="M6.77719 4.07861C5.33738 4.07861 4.16589 5.25001 4.16589 6.68991C4.16589 8.12972 5.33738 9.3012 6.77719 9.3012C8.21709 9.3012 9.38848 8.12972 9.38848 6.68991C9.38848 5.25001 8.21709 4.07861 6.77719 4.07861Z" fill="#988E84"/>
<path d="M10.1805 2.89813C10.032 2.89813 9.91101 3.01907 9.91101 3.16766C9.91101 3.31624 10.032 3.43718 10.1805 3.43718C10.3292 3.43718 10.4501 3.31633 10.4501 3.16766C10.4501 3.01898 10.3292 2.89813 10.1805 2.89813Z" fill="#988E84"/>
</g>
<defs>
<clipPath id="clip0">
<rect width="12.1566" height="12.1566" fill="white" transform="translate(0.698853 0.611572)"/>
</clipPath>
</defs>
</svg>
