<svg width="578" height="357" viewBox="0 0 578 357" fill="none" xmlns="http://www.w3.org/2000/svg">
<path d="M520.928 118.976C526.051 132.255 524.469 146.596 517.2 161.168C509.93 175.74 496.975 190.535 479.37 204.709C444.161 233.059 390.375 258.912 326.355 275.542C262.335 292.173 200.217 296.429 151.541 289.871C127.203 286.592 106.232 280.611 90.0667 272.126C73.902 263.642 62.5507 252.661 57.4276 239.382C52.3045 226.102 53.8864 211.761 61.1561 197.189C68.4262 182.617 81.3811 167.822 98.9857 153.648C134.195 125.298 187.981 99.4454 252.001 82.8146C316.02 66.1839 378.139 61.9278 426.815 68.4858C451.153 71.7648 472.124 77.7464 488.289 86.2309C504.454 94.715 515.805 105.696 520.928 118.976Z" stroke="#988E84" stroke-width="0.281659"/>
<path d="M529.485 103.27C534.611 116.541 532.968 130.889 525.581 145.48C518.193 160.073 505.064 174.9 487.242 189.117C451.599 217.549 397.206 243.521 332.509 260.286C267.813 277.05 205.078 281.429 155.952 274.963C131.389 271.729 110.237 265.786 93.9444 257.329C77.6531 248.873 66.2321 237.91 61.1054 224.639C55.9786 211.369 57.6219 197.021 65.0093 182.429C72.3972 167.836 85.5256 153.009 103.348 138.793C138.991 110.36 193.384 84.388 258.081 67.6235C322.777 50.8589 385.512 46.4798 434.638 52.9465C459.201 56.1799 480.353 62.1237 496.646 70.5803C512.937 79.0365 524.358 89.999 529.485 103.27Z" stroke="#988E84" stroke-width="0.316174"/>
<path d="M516.984 132.416C522.088 145.667 520.44 160.005 513.049 174.601C505.658 189.197 492.531 204.037 474.71 218.272C439.068 246.743 384.687 272.768 320.012 289.59C255.338 306.412 192.637 310.839 143.552 304.406C119.009 301.19 97.8817 295.26 81.6162 286.816C65.352 278.373 53.9645 267.426 48.8606 254.175C43.7567 240.924 45.4052 226.587 52.7957 211.991C60.1867 197.395 73.3139 182.555 91.1352 168.32C126.777 139.849 181.158 113.823 245.833 97.0015C310.507 80.1796 373.207 75.7526 422.293 82.1854C446.836 85.4018 467.963 91.3317 484.229 99.7754C500.493 108.218 511.88 119.165 516.984 132.416Z" stroke="#988E84" stroke-width="0.47426"/>
<path d="M491.661 52.6209L489.815 64.2441L499.582 71.2842L487.402 69.6644L479.895 79.0537L481.741 67.4305L471.973 60.3904L484.153 62.0102L491.661 52.6209Z" fill="#988E84"/>
<path d="M111.847 271.207L116.996 289.495L136.343 293.858L117.083 298.981L112.272 317.465L107.124 299.177L87.7764 294.814L107.037 289.691L111.847 271.207Z" fill="#988E84"/>
</svg>
