<svg width="579" height="357" viewBox="0 0 579 357" fill="none" xmlns="http://www.w3.org/2000/svg">
<path d="M521.228 118.584C526.351 131.863 524.769 146.204 517.499 160.776C510.229 175.348 497.274 190.143 479.67 204.318C444.461 232.667 390.674 258.52 326.655 275.151C262.635 291.781 200.516 296.038 151.84 289.48C127.502 286.201 106.532 280.219 90.3663 271.734C74.2016 263.25 62.8502 252.269 57.7271 238.99C52.604 225.711 54.1859 211.369 61.4557 196.798C68.7258 182.225 81.6807 167.431 99.2853 153.256C134.494 124.907 188.281 99.0536 252.3 82.4229C316.32 65.7922 378.439 61.5361 427.115 68.0941C451.453 71.3731 472.423 77.3547 488.589 85.8392C504.753 94.3233 516.105 105.305 521.228 118.584Z" stroke="#988E84" stroke-width="0.281659"/>
<path d="M529.784 102.878C534.911 116.149 533.268 130.497 525.88 145.089C518.492 159.681 505.364 174.508 487.542 188.725C451.899 217.157 397.505 243.129 332.809 259.894C268.112 276.659 205.377 281.038 156.252 274.571C131.689 271.338 110.536 265.394 94.244 256.937C77.9527 248.481 66.5317 237.519 61.4049 224.248C56.2782 210.977 57.9214 196.629 65.3089 182.037C72.6968 167.444 85.8251 152.617 103.647 138.401C139.291 109.968 193.684 83.9963 258.38 67.2317C323.077 50.4672 385.812 46.088 434.937 52.5547C459.5 55.7881 480.653 61.732 496.945 70.1886C513.236 78.6447 524.657 89.6072 529.784 102.878Z" stroke="#988E84" stroke-width="0.316174"/>
<path d="M517.284 132.025C522.388 145.276 520.739 159.613 513.349 174.209C505.958 188.805 492.83 203.645 475.009 217.88C439.367 246.351 384.986 272.377 320.312 289.199C255.637 306.02 192.937 310.447 143.852 304.015C119.308 300.798 98.1813 294.868 81.9158 286.425C65.6516 277.982 54.264 267.035 49.1601 253.784C44.0562 240.533 45.7048 226.195 53.0952 211.599C60.4862 197.003 73.6135 182.163 91.4347 167.928C127.077 139.457 181.458 113.432 246.132 96.6097C310.806 79.7879 373.507 75.3608 422.592 81.7936C447.136 85.0101 468.263 90.94 484.528 99.3836C500.792 107.827 512.18 118.774 517.284 132.025Z" stroke="#988E84" stroke-width="0.47426"/>
<path d="M491.96 52.2292L490.115 63.8524L499.882 70.8925L487.702 69.2727L480.195 78.6619L482.04 67.0388L472.273 59.9987L484.453 61.6185L491.96 52.2292Z" fill="#988E84"/>
<path d="M112.147 270.815L117.295 289.103L136.643 293.466L117.383 298.589L112.572 317.073L107.423 298.785L88.0759 294.423L107.336 289.3L112.147 270.815Z" fill="#988E84"/>
</svg>
