<svg width="18" height="17" viewBox="0 0 18 17" fill="none" xmlns="http://www.w3.org/2000/svg">
<g clip-path="url(#clip0)">
<path d="M14.7774 9.17655C14.5049 8.83236 14.5828 8.67922 14.7774 8.37156C14.7809 8.36805 17.0308 5.25908 17.2626 4.20473L17.264 4.20402C17.3792 3.81979 17.264 3.53741 16.707 3.53741H14.8638C14.3946 3.53741 14.1782 3.77975 14.0623 4.05089C14.0623 4.05089 13.1239 6.29727 11.7963 7.75342C11.3678 8.17417 11.1697 8.30904 10.9358 8.30904C10.8206 8.30904 10.6415 8.17418 10.6415 7.78994V4.20402C10.6415 3.74323 10.5101 3.53741 10.1217 3.53741H7.22344C6.92912 3.53741 6.75421 3.75236 6.75421 3.95255C6.75421 4.38947 7.41801 4.48991 7.48685 5.71917V8.38631C7.48685 8.97073 7.38078 9.07821 7.14547 9.07821C6.5189 9.07821 4.99813 6.82269 4.09691 4.24125C3.91498 3.74042 3.73727 3.53812 3.26453 3.53812H1.42064C0.894519 3.53812 0.788452 3.78046 0.788452 4.0516C0.788452 4.53065 1.41502 6.91261 3.70214 10.0595C5.22642 12.2075 7.37306 13.3715 9.32582 13.3715C10.4996 13.3715 10.6429 13.113 10.6429 12.6683C10.6429 10.6158 10.5368 10.422 11.1248 10.422C11.3973 10.422 11.8665 10.5568 12.9623 11.5929C14.2148 12.8215 14.4206 13.3715 15.1216 13.3715H16.9648C17.4902 13.3715 17.7564 13.113 17.6033 12.603C17.2528 11.5304 14.8842 9.32406 14.7774 9.17655Z" fill="#988E84"/>
</g>
<defs>
<clipPath id="clip0">
<rect width="16.8584" height="16.8584" fill="white" transform="translate(0.788452 0.0252686)"/>
</clipPath>
</defs>
</svg>
